<svg
  width="180"
  height="180"
  viewBox="0 0 180 180"
  fill="none"
  xmlns="http://www.w3.org/2000/svg"
>
  <!-- Fondo -->
  <rect width="180" height="180" rx="40" fill="#0f172a" />

  <!-- Grupo del logo centrado, escalado 2x (viewBox original 65) -->
  <g transform="translate(25, 25) scale(2)">
    <circle cx="32.5" cy="32.5" r="7.76" fill="#38bdf8" />

    <mask id="am1" maskUnits="userSpaceOnUse" x="0" y="0" width="65" height="65" fill="black">
      <rect fill="white" width="65" height="65" />
      <path fillRule="evenodd" clipRule="evenodd" d="M63 32.5C63 49.3447 49.3447 63 32.5 63C15.6553 63 2 49.3447 2 32.5C2 15.6553 15.6553 2 32.5 2C38.4707 2 44.0407 3.71563 48.7438 6.68081C49.5114 7.1647 49.5531 8.24774 48.858 8.83095V8.83095C48.3822 9.23024 47.7009 9.26189 47.1742 8.9325C42.8927 6.25479 37.832 4.7071 32.4098 4.7071C17.0103 4.7071 4.52663 17.1908 4.52663 32.5902C4.52663 47.9897 17.0103 60.4734 32.4098 60.4734C47.8092 60.4734 60.2929 47.9897 60.2929 32.5902C60.2929 28.8412 59.553 25.2651 58.2113 21.9997C57.9746 21.4238 58.1226 20.7558 58.5996 20.3555V20.3555C59.2908 19.7755 60.3441 20.0007 60.6895 20.8343C62.1783 24.428 63 28.368 63 32.5Z" />
    </mask>
    <path fillRule="evenodd" clipRule="evenodd" d="M63 32.5C63 49.3447 49.3447 63 32.5 63C15.6553 63 2 49.3447 2 32.5C2 15.6553 15.6553 2 32.5 2C38.4707 2 44.0407 3.71563 48.7438 6.68081C49.5114 7.1647 49.5531 8.24774 48.858 8.83095V8.83095C48.3822 9.23024 47.7009 9.26189 47.1742 8.9325C42.8927 6.25479 37.832 4.7071 32.4098 4.7071C17.0103 4.7071 4.52663 17.1908 4.52663 32.5902C4.52663 47.9897 17.0103 60.4734 32.4098 60.4734C47.8092 60.4734 60.2929 47.9897 60.2929 32.5902C60.2929 28.8412 59.553 25.2651 58.2113 21.9997C57.9746 21.4238 58.1226 20.7558 58.5996 20.3555V20.3555C59.2908 19.7755 60.3441 20.0007 60.6895 20.8343C62.1783 24.428 63 28.368 63 32.5Z" fill="#38bdf8" />

    <mask id="am2" maskUnits="userSpaceOnUse" x="12" y="12" width="41" height="41" fill="black">
      <rect fill="white" x="12.45" y="12.45" width="41" height="41" />
      <path fillRule="evenodd" clipRule="evenodd" d="M50.5473 32.5C50.5473 42.4673 42.4673 50.5473 32.5 50.5473C30.0838 50.5473 27.7785 50.0725 25.6724 49.2111C25.1655 49.0038 25.0821 48.3384 25.5016 47.9864V47.9864C25.7214 47.8019 26.0261 47.7592 26.2924 47.8663C28.1941 48.6313 30.2712 49.0523 32.4466 49.0523C41.5587 49.0523 48.9455 41.6655 48.9455 32.5534C48.9455 23.4413 41.5587 16.0545 32.4466 16.0545C23.3345 16.0545 15.9477 23.4413 15.9477 32.5534C15.9477 33.5777 16.041 34.5801 16.2197 35.5528C16.2705 35.8296 16.1738 36.1146 15.9581 36.2955V36.2955C15.5299 36.6548 14.8761 36.4444 14.7715 35.8952C14.5622 34.7956 14.4527 33.6606 14.4527 32.5C14.4527 22.5327 22.5327 14.4527 32.5 14.4527C42.4673 14.4527 50.5473 22.5327 50.5473 32.5Z" />
    </mask>
    <path fillRule="evenodd" clipRule="evenodd" d="M50.5473 32.5C50.5473 42.4673 42.4673 50.5473 32.5 50.5473C30.0838 50.5473 27.7785 50.0725 25.6724 49.2111C25.1655 49.0038 25.0821 48.3384 25.5016 47.9864V47.9864C25.7214 47.8019 26.0261 47.7592 26.2924 47.8663C28.1941 48.6313 30.2712 49.0523 32.4466 49.0523C41.5587 49.0523 48.9455 41.6655 48.9455 32.5534C48.9455 23.4413 41.5587 16.0545 32.4466 16.0545C23.3345 16.0545 15.9477 23.4413 15.9477 32.5534C15.9477 33.5777 16.041 34.5801 16.2197 35.5528C16.2705 35.8296 16.1738 36.1146 15.9581 36.2955V36.2955C15.5299 36.6548 14.8761 36.4444 14.7715 35.8952C14.5622 34.7956 14.4527 33.6606 14.4527 32.5C14.4527 22.5327 22.5327 14.4527 32.5 14.4527C42.4673 14.4527 50.5473 22.5327 50.5473 32.5Z" fill="#38bdf8" />
  </g>
</svg>
