<svg width="113" height="116" viewBox="0 0 113 116" fill="none" xmlns="http://www.w3.org/2000/svg">
<path d="M90.6462 44.4825V94.2388C90.6462 98.637 87.2344 102.201 83.0215 102.201H21.4459C17.2359 102.201 13.8212 98.6381 13.8212 94.2388V44.4825C13.8212 40.0843 17.2359 36.5205 21.4459 36.5205H83.0215C87.2334 36.5205 90.6462 40.0832 90.6462 44.4825Z" fill="#00C0FF"/>
<path d="M90.6462 84.3921V93.6895C90.6462 98.3905 87.2344 102.2 83.0215 102.2H21.4459C17.2359 102.2 13.8212 98.3905 13.8212 93.6895V84.3921H90.6462Z" fill="#0098FF"/>
<path d="M7.87143 74.8671H0.990814C0.445279 74.8671 -5.72205e-06 74.4011 -5.72205e-06 73.8325V67.4912C-5.72205e-06 66.9225 0.446262 66.4565 0.990814 66.4565H7.87143C7.97169 66.4565 8.05425 66.5428 8.05425 66.6475V74.6772C8.05326 74.7809 7.97169 74.8671 7.87143 74.8671Z" fill="#043956"/>
<path d="M103.479 74.8667H96.598C96.4977 74.8667 96.4151 74.7805 96.4151 74.6758V66.646C96.4151 66.5413 96.4977 66.4551 96.598 66.4551H103.479C104.024 66.4551 104.469 66.9211 104.469 67.4897V73.831C104.47 74.4007 104.024 74.8667 103.479 74.8667Z" fill="#043956"/>
<path d="M99.3443 85.5407H90.6462V55.4263H99.3443C100.912 55.4263 102.183 56.7534 102.183 58.3906V82.5754C102.184 84.2135 100.913 85.5407 99.3443 85.5407Z" fill="#0C4E73"/>
<path d="M13.8232 55.4272V85.5417C12.7999 85.5417 11.8071 85.4031 10.8625 85.1404C5.92323 83.7762 2.28436 79.0793 2.28436 73.4934V67.4765C2.28436 64.1488 3.57693 61.1373 5.66274 58.9561C7.08211 57.477 8.86617 56.3818 10.8625 55.8296C11.8071 55.5658 12.7989 55.4272 13.8232 55.4272Z" fill="#0C4E73"/>
<path d="M32.7606 69.9983C28.9566 69.9983 25.8623 66.767 25.8623 62.7948V59.0873C25.8623 55.115 28.9566 51.8838 32.7606 51.8838C36.5636 51.8838 39.6589 55.115 39.6589 59.0873V62.7948C39.6579 66.767 36.5636 69.9983 32.7606 69.9983Z" fill="#043956"/>
<path d="M32.7606 68.227C29.8923 68.227 27.5588 65.7902 27.5588 62.7951V59.0876C27.5588 56.0925 29.8923 53.6558 32.7606 53.6558C35.6288 53.6558 37.9623 56.0925 37.9623 59.0876V62.7951C37.9623 65.7902 35.6278 68.227 32.7606 68.227Z" fill="#0C4E73"/>
<path d="M36.2658 59.0875V62.796C36.2658 64.8099 34.6881 66.4573 32.7596 66.4573C31.4621 66.4573 30.3248 65.7132 29.7174 64.6118C29.4235 64.075 29.2534 63.454 29.2534 62.796V59.0875C29.2534 57.0737 30.831 55.4263 32.7596 55.4263C33.7239 55.4263 34.5997 55.8399 35.2366 56.5009C35.4086 56.6806 35.5649 56.8787 35.6976 57.0942C36.0574 57.668 36.2658 58.3526 36.2658 59.0875Z" fill="#F7FFFF"/>
<path d="M36.2658 59.0875V62.796C36.2658 64.8099 34.6881 66.4573 32.7596 66.4573C31.4621 66.4573 30.3248 65.7131 29.7174 64.6118L35.6966 57.0952C36.0574 57.668 36.2658 58.3526 36.2658 59.0875Z" fill="#E3E3E3"/>
<path d="M71.9712 69.9983C68.1682 69.9983 65.0729 66.767 65.0729 62.7948V59.0873C65.0729 55.115 68.1672 51.8838 71.9712 51.8838C75.7752 51.8838 78.8695 55.115 78.8695 59.0873V62.7948C78.8695 66.767 75.7752 69.9983 71.9712 69.9983Z" fill="#043956"/>
<path d="M71.9712 68.227C69.103 68.227 66.7695 65.7902 66.7695 62.7951V59.0876C66.7695 56.0925 69.103 53.6558 71.9712 53.6558C74.8395 53.6558 77.173 56.0925 77.173 59.0876V62.7951C77.173 65.7902 74.8395 68.227 71.9712 68.227Z" fill="#0C4E73"/>
<path d="M75.4784 59.0875V62.796C75.4784 64.8099 73.9008 66.4573 71.9722 66.4573C70.6747 66.4573 69.5375 65.7132 68.93 64.6118C68.6361 64.075 68.466 63.454 68.466 62.796V59.0875C68.466 57.0737 70.0437 55.4263 71.9722 55.4263C72.9365 55.4263 73.8123 55.8399 74.4492 56.5009C74.6212 56.6806 74.7775 56.8787 74.9102 57.0942C75.269 57.668 75.4784 58.3526 75.4784 59.0875Z" fill="#F7FFFF"/>
<path d="M75.4784 59.0875V62.796C75.4784 64.8099 73.9008 66.4573 71.9722 66.4573C70.6747 66.4573 69.5375 65.7131 68.93 64.6118L74.9093 57.0952C75.269 57.668 75.4784 58.3526 75.4784 59.0875Z" fill="#E3E3E3"/>
<path d="M53.6236 16.894H50.8448V36.5184H53.6236V16.894Z" fill="#0C4E73"/>
<path d="M62.9655 108.716H41.4587C41.037 108.716 40.691 108.356 40.691 107.915V103.003C40.691 102.562 41.037 102.202 41.4587 102.202H62.9655C63.3882 102.202 63.7332 102.563 63.7332 103.003V107.915C63.7332 108.356 63.3872 108.716 62.9655 108.716Z" fill="#043956"/>
<path d="M62.9655 115.138H41.4587C41.036 115.138 40.691 114.778 40.691 114.336V109.424C40.691 108.982 41.037 108.622 41.4587 108.622H62.9655C63.3882 108.622 63.7332 108.983 63.7332 109.424V114.336C63.7332 114.778 63.3872 115.138 62.9655 115.138Z" fill="#0C4E73"/>
<path d="M21.8892 95.7139C21.8892 96.7742 21.0665 97.6333 20.0511 97.6333C19.0357 97.6333 18.213 96.7742 18.213 95.7139C18.213 94.6536 19.0357 93.7944 20.0511 93.7944C21.0665 93.7944 21.8892 94.6546 21.8892 95.7139Z" fill="#043956"/>
<path d="M21.8892 42.6421C21.8892 43.7024 21.0665 44.5615 20.0511 44.5615C19.0357 44.5615 18.213 43.7024 18.213 42.6421C18.213 41.5818 19.0357 40.7227 20.0511 40.7227C21.0665 40.7237 21.8892 41.5828 21.8892 42.6421Z" fill="#043956"/>
<path d="M86.4097 95.7139C86.4097 96.7742 85.587 97.6333 84.5716 97.6333C83.5562 97.6333 82.7335 96.7742 82.7335 95.7139C82.7335 94.6536 83.5562 93.7944 84.5716 93.7944C85.587 93.7944 86.4097 94.6546 86.4097 95.7139Z" fill="#043956"/>
<path d="M86.4097 42.6421C86.4097 43.7024 85.587 44.5615 84.5716 44.5615C83.5562 44.5615 82.7335 43.7024 82.7335 42.6421C82.7335 41.5818 83.5562 40.7227 84.5716 40.7227C85.587 40.7227 86.4097 41.5828 86.4097 42.6421Z" fill="#043956"/>
<path d="M13.8232 55.4272V85.5417C12.7999 85.5417 11.8071 85.4031 10.8625 85.1404V55.8296C11.8071 55.5658 12.7989 55.4272 13.8232 55.4272Z" fill="#043956"/>
<path d="M90.6472 55.4272V85.5417C91.6704 85.5417 92.6632 85.4031 93.6078 85.1404V55.8296C92.6632 55.5658 91.6704 55.4272 90.6472 55.4272Z" fill="#043956"/>
<path d="M52.4234 20.7371C55.8587 20.7371 58.6435 17.8291 58.6435 14.2418C58.6435 10.6546 55.8587 7.74658 52.4234 7.74658C48.9882 7.74658 46.2033 10.6546 46.2033 14.2418C46.2033 17.8291 48.9882 20.7371 52.4234 20.7371Z" fill="#0C4E73"/>
<path d="M55.6219 17.5826C53.8585 19.4241 50.9893 19.423 49.2249 17.5806C47.4615 15.7392 47.4595 12.743 49.2229 10.9006C50.9863 9.05918 53.8575 9.05918 55.6209 10.9006C57.3853 12.743 57.3853 15.7412 55.6219 17.5826Z" fill="#00C0FF"/>
<path d="M55.6219 17.5829C53.8585 19.4243 50.9893 19.4233 49.2249 17.5809L55.6219 10.9009C57.3853 12.7433 57.3853 15.7415 55.6219 17.5829Z" fill="#0098FF"/>
<path d="M52.4234 94.6823C39.7955 94.6823 34.4591 88.0885 32.4018 84.1572C31.7943 82.9963 31.8169 81.624 32.4627 80.4857C33.1085 79.3484 34.2497 78.6699 35.5158 78.6699H69.2406C70.5008 78.6699 71.639 79.3433 72.2858 80.4723C72.9335 81.6014 72.964 82.9697 72.3683 84.1316C70.3484 88.072 65.069 94.6823 52.4234 94.6823Z" fill="#0C4E73"/>
<path d="M71.0915 82.2808C71.1112 82.6144 71.0433 82.9633 70.8733 83.2939C70.5204 83.9816 70.0643 84.7493 69.4795 85.5407C66.9327 88.9864 61.9422 92.9095 52.4224 92.9095C42.9055 92.9095 37.8788 88.9854 35.3005 85.5407C34.7098 84.7555 34.2487 83.9939 33.89 83.3082C33.715 82.9746 33.6472 82.6205 33.6669 82.2808C33.7121 81.3067 34.4699 80.4414 35.5158 80.4414H69.2426C70.2855 80.4424 71.0463 81.3067 71.0915 82.2808Z" fill="#F7FFFF"/>
<path d="M71.0915 82.2808H33.6669C33.7121 81.3067 34.4699 80.4414 35.5158 80.4414H69.2426C70.2855 80.4424 71.0463 81.3067 71.0915 82.2808Z" fill="#E3E3E3"/>
<path d="M88.87 53.7553V44.4948C88.87 41.124 86.2534 38.3906 83.0244 38.3906H22.0632C18.8352 38.3906 16.2176 41.123 16.2176 44.4948V56.5472H88.8691V53.7553H88.87Z" fill="url(#paint0_linear_131_192)"/>
<path d="M91.9771 0H87.2836V4.28123C85.8642 4.56042 84.5431 5.13112 83.3842 5.94098L80.2742 2.69335L76.9548 6.15859L80.1601 9.50577C79.6775 10.3557 79.302 11.2764 79.0504 12.2525H74.7667V17.1537H78.8666C79.134 18.6359 79.6805 20.0154 80.456 21.2256L77.7372 24.0647L81.0566 27.5299L83.8708 24.5912C84.9088 25.2348 86.0568 25.7008 87.2836 25.942V30.2232H91.9771V25.7501C93.2844 25.3826 94.4895 24.7616 95.5452 23.9364L98.6739 27.2035L101.992 23.7383L98.6002 20.1961C99.072 19.2528 99.416 18.2314 99.6107 17.1537H103.711V12.2525H99.4269C99.1752 11.2764 98.8007 10.3557 98.3171 9.50577L101.522 6.15859L98.2041 2.69335L95.094 5.94098C94.1514 5.28304 93.0996 4.7893 91.9771 4.47316V0ZM93.542 15.1121C93.542 17.5889 91.6115 19.6048 89.2396 19.6048C86.8668 19.6048 84.9373 17.5889 84.9373 15.1121C84.9373 12.6343 86.8678 10.6194 89.2396 10.6194C91.6115 10.6194 93.542 12.6343 93.542 15.1121Z" fill="#0C4E73"/>
<path d="M106.515 27.6626H104.168V29.8037C103.458 29.9433 102.797 30.2287 102.218 30.6331L100.663 29.0093L99.0042 30.7419L100.607 32.416C100.366 32.841 100.179 33.3018 100.053 33.7894H97.9112V36.2395H99.9616C100.095 36.9806 100.369 37.6703 100.756 38.2749L99.3964 39.6944L101.056 41.427L102.463 39.9572C102.982 40.2795 103.556 40.5115 104.17 40.6326V42.7737H106.517V40.5371C107.17 40.3534 107.773 40.0424 108.301 39.6308L109.866 41.2649L111.525 39.5322L109.829 37.7616C110.065 37.2895 110.237 36.7794 110.335 36.2405H112.385V33.7904H110.243C110.117 33.3028 109.93 32.842 109.689 32.417L111.291 30.7429L109.632 29.0103L108.077 30.6341C107.606 30.3046 107.079 30.0583 106.519 29.9002V27.6626H106.515ZM107.296 35.2192C107.296 36.4581 106.331 37.466 105.146 37.466C103.959 37.466 102.994 36.4581 102.994 35.2192C102.994 33.9803 103.959 32.9723 105.146 32.9723C106.332 32.9723 107.296 33.9803 107.296 35.2192Z" fill="#043956"/>
<defs>
<linearGradient id="paint0_linear_131_192" x1="52.5444" y1="18.3936" x2="52.5444" y2="54.5488" gradientUnits="userSpaceOnUse">
<stop stop-color="white"/>
<stop offset="1" stop-color="white" stop-opacity="0"/>
</linearGradient>
</defs>
</svg>
